<?xml version="1.0" standalone="no"?>
<!DOCTYPE svg PUBLIC "-//W3C//DTD SVG 20010904//EN"
 "http://www.w3.org/TR/2001/REC-SVG-20010904/DTD/svg10.dtd">
<svg version="1.0" xmlns="http://www.w3.org/2000/svg"
 width="512.000000pt" height="512.000000pt" viewBox="0 0 512.000000 512.000000"
 preserveAspectRatio="xMidYMid meet">
<metadata>
Created by potrace 1.14, written by Peter Selinger 2001-2017
</metadata>
<g transform="translate(0.000000,512.000000) scale(0.100000,-0.100000)"
fill="#000000" stroke="none">
<path d="M3434 4427 c-27 -29 -86 -78 -130 -109 -44 -32 -121 -91 -170 -134
-49 -42 -179 -149 -289 -237 -391 -315 -592 -483 -742 -622 -44 -42 -318 -303
-377 -360 -65 -63 -264 -301 -309 -371 -59 -89 -81 -191 -92 -429 -7 -152 5
-224 47 -294 12 -20 112 -128 223 -241 110 -113 248 -259 305 -325 58 -66 125
-142 151 -170 81 -88 114 -128 189 -230 91 -123 238 -271 306 -308 29 -15 72
-30 97 -33 82 -12 128 20 345 236 106 105 210 217 230 248 35 52 37 60 37 136
-1 148 -78 302 -235 466 -29 30 -81 86 -116 124 l-63 69 34 66 c40 78 79 208
102 341 13 73 17 154 16 351 0 232 -2 263 -22 327 -26 85 -74 149 -171 227
-38 32 -70 61 -70 65 0 11 175 140 266 195 134 82 225 162 571 497 111 107
148 173 148 258 -1 43 -7 67 -29 104 -31 54 -172 206 -190 206 -6 0 -34 -24
-62 -53z m-934 -1439 c92 -190 104 -473 28 -681 -24 -65 -31 -73 -50 -54 -7 7
-65 57 -128 112 -179 153 -270 238 -270 252 0 7 76 88 169 180 134 134 172
178 186 215 10 26 22 45 27 42 5 -3 22 -33 38 -66z"/>
</g>
</svg>
